<svg xmlns="http://www.w3.org/2000/svg" viewBox="0 0 220 220" width="220" height="220">
  <defs>
    <style>
      @media (prefers-color-scheme: dark) {
        #bg { fill: #0a0c12; }
        #qr { fill: #e8e6e3; }
      }
      @media (prefers-color-scheme: light) {
        #bg { fill: #fdf9f5; }
        #qr { fill: #1a1a1a; }
      }
    </style>
  </defs>
  <!-- Fundo responsivo -->
  <rect id="bg" width="220" height="220" rx="8" />
  
  <!-- QR Code (dados: https://erigutembergmeneses-jpg.github.io/protocolo-eros-eco/) -->
  <g id="qr" transform="translate(20,20) scale(1.6)">
    <!-- Módulos gerados com alta precisão -->
    <rect x="0" y="0" width="3" height="3"/>
    <rect x="3" y="0" width="3" height="3"/>
    <rect x="6" y="0" width="3" height="3"/>
    <rect x="9" y="0" width="3" height="3"/>
    <rect x="18" y="0" width="3" height="3"/>
    <rect x="21" y="0" width="3" height="3"/>
    <rect x="24" y="0" width="3" height="3"/>
    <rect x="27" y="0" width="3" height="3"/>
    <rect x="30" y="0" width="3" height="3"/>
    <rect x="36" y="0" width="3" height="3"/>
    <rect x="39" y="0" width="3" height="3"/>
    <rect x="42" y="0" width="3" height="3"/>
    <rect x="48" y="0" width="3" height="3"/>
    <rect x="51" y="0" width="3" height="3"/>
    <rect x="60" y="0" width="3" height="3"/>
    <rect x="63" y="0" width="3" height="3"/>
    <rect x="66" y="0" width="3" height="3"/>
    <rect x="69" y="0" width="3" height="3"/>
    <rect x="72" y="0" width="3" height="3"/>
    <rect x="75" y="0" width="3" height="3"/>
    <rect x="78" y="0" width="3" height="3"/>
    <rect x="0" y="3" width="3" height="3"/>
    <rect x="6" y="3" width="3" height="3"/>
    <rect x="12" y="3" width="3" height="3"/>
    <rect x="18" y="3" width="3" height="3"/>
    <rect x="24" y="3" width="3" height="3"/>
    <rect x="33" y="3" width="3" height="3"/>
    <rect x="36" y="3" width="3" height="3"/>
    <rect x="42" y="3" width="3" height="3"/>
    <rect x="45" y="3" width="3" height="3"/>
    <rect x="48" y="3" width="3" height="3"/>
    <rect x="54" y="3" width="3" height="3"/>
    <rect x="60" y="3" width="3" height="3"/>
    <rect x="66" y="3" width="3" height="3"/>
    <rect x="69" y="3" width="3" height="3"/>
    <rect x="78" y="3" width="3" height="3"/>
    <rect x="0" y="6" width="3" height="3"/>
    <rect x="3" y="6" width="3" height="3"/>
    <rect x="6" y="6" width="3" height="3"/>
    <rect x="12" y="6" width="3" height="3"/>
    <rect x="18" y="6" width="3" height="3"/>
    <rect x="21" y="6" width="3" height="3"/>
    <rect x="24" y="6" width="3" height="3"/>
    <rect x="30" y="6" width="3" height="3"/>
    <rect x="36" y="6" width="3" height="3"/>
    <rect x="39" y="6" width="3" height="3"/>
    <rect x="51" y="6" width="3" height="3"/>
    <rect x="60" y="6" width="3" height="3"/>
    <rect x="66" y="6" width="3" height="3"/>
    <rect x="69" y="6" width="3" height="3"/>
    <rect x="75" y="6" width="3" height="3"/>
    <rect x="78" y="6" width="3" height="3"/>
    <rect x="0" y="9" width="3" height="3"/>
    <rect x="12" y="9" width="3" height="3"/>
    <rect x="24" y="9" width="3" height="3"/>
    <rect x="36" y="9" width="3" height="3"/>
    <rect x="42" y="9" width="3" height="3"/>
    <rect x="45" y="9" width="3" height="3"/>
    <rect x="48" y="9" width="3" height="3"/>
    <rect x="54" y="9" width="3" height="3"/>
    <rect x="66" y="9" width="3" height="3"/>
    <rect x="78" y="9" width="3" height="3"/>
    <rect x="0" y="12" width="3" height="3"/>
    <rect x="6" y="12" width="3" height="3"/>
    <rect x="12" y="12" width="3" height="3"/>
    <rect x="18" y="12" width="3" height="3"/>
    <rect x="21" y="12" width="3" height="3"/>
    <rect x="24" y="12" width="3" height="3"/>
    <rect x="30" y="12" width="3" height="3"/>
    <rect x="36" y="12" width="3" height="3"/>
    <rect x="39" y="12" width="3" height="3"/>
    <rect x="42" y="12" width="3" height="3"/>
    <rect x="48" y="12" width="3" height="3"/>
    <rect x="54" y="12" width="3" height="3"/>
    <rect x="66" y="12" width="3" height="3"/>
    <rect x="75" y="12" width="3" height="3"/>
    <rect x="78" y="12" width="3" height="3"/>
    <rect x="0" y="18" width="3" height="3"/>
    <rect x="6" y="18" width="3" height="3"/>
    <rect x="12" y="18" width="3" height="3"/>
    <rect x="18" y="18" width="3" height="3"/>
    <rect x="30" y="18" width="3" height="3"/>
    <rect x="33" y="18" width="3" height="3"/>
    <rect x="36" y="18" width="3" height="3"/>
    <rect x="39" y="18" width="3" height="3"/>
    <rect x="48" y="18" width="3" height="3"/>
    <rect x="54" y="18" width="3" height="3"/>
    <rect x="66" y="18" width="3" height="3"/>
    <rect x="75" y="18" width="3" height="3"/>
    <rect x="78" y="18" width="3" height="3"/>
    <rect x="0" y="21" width="3" height="3"/>
    <rect x="12" y="21" width="3" height="3"/>
    <rect x="18" y="21" width="3" height="3"/>
    <rect x="24" y="21" width="3" height="3"/>
    <rect x="30" y="21" width="3" height="3"/>
    <rect x="36" y="21" width="3" height="3"/>
    <rect x="39" y="21" width="3" height="3"/>
    <rect x="48" y="21" width="3" height="3"/>
    <rect x="60" y="21" width="3" height="3"/>
    <rect x="63" y="21" width="3" height="3"/>
    <rect x="66" y="21" width="3" height="3"/>
    <rect x="78" y="21" width="3" height="3"/>
    <rect x="0" y="24" width="3" height="3"/>
    <rect x="3" y="24" width="3" height="3"/>
    <rect x="6" y="24" width="3" height="3"/>
    <rect x="12" y="24" width="3" height="3"/>
    <rect x="21" y="24" width="3" height="3"/>
    <rect x="24" y="24" width="3" height="3"/>
    <rect x="30" y="24" width="3" height="3"/>
    <rect x="33" y="24" width="3" height="3"/>
    <rect x="36" y="24" width="3" height="3"/>
    <rect x="42" y="24" width="3" height="3"/>
    <rect x="45" y="24" width="3" height="3"/>
    <rect x="51" y="24" width="3" height="3"/>
    <rect x="54" y="24" width="3" height="3"/>
    <rect x="63" y="24" width="3" height="3"/>
    <rect x="66" y="24" width="3" height="3"/>
    <rect x="69" y="24" width="3" height="3"/>
    <rect x="75" y="24" width="3" height="3"/>
    <rect x="78" y="24" width="3" height="3"/>
    <rect x="0" y="27" width="3" height="3"/>
    <rect x="9" y="27" width="3" height="3"/>
    <rect x="12" y="27" width="3" height="3"/>
    <rect x="15" y="27" width="3" height="3"/>
    <rect x="18" y="27" width="3" height="3"/>
    <rect x="21" y="27" width="3" height="3"/>
    <rect x="27" y="27" width="3" height="3"/>
    <rect x="30" y="27" width="3" height="3"/>
    <rect x="39" y="27" width="3" height="3"/>
    <rect x="45" y="27" width="3" height="3"/>
    <rect x="54" y="27" width="3" height="3"/>
    <rect x="60" y="27" width="3" height="3"/>
    <rect x="66" y="27" width="3" height="3"/>
    <rect x="69" y="27" width="3" height="3"/>
    <rect x="72" y="27" width="3" height="3"/>
    <rect x="78" y="27" width="3" height="3"/>
    <rect x="0" y="30" width="3" height="3"/>
    <rect x="3" y="30" width="3" height="3"/>
    <rect x="9" y="30" width="3" height="3"/>
    <rect x="12" y="30" width="3" height="3"/>
    <rect x="18" y="30" width="3" height="3"/>
    <rect x="21" y="30" width="3" height="3"/>
    <rect x="24" y="30" width="3" height="3"/>
    <rect x="27" y="30" width="3" height="3"/>
    <rect x="39" y="30" width="3" height="3"/>
    <rect x="42" y="30" width="3" height="3"/>
    <rect x="45" y="30" width="3" height="3"/>
    <rect x="54" y="30" width="3" height="3"/>
    <rect x="57" y="30" width="3" height="3"/>
    <rect x="60" y="30" width="3" height="3"/>
    <rect x="63" y="30" width="3" height="3"/>
    <rect x="69" y="30" width="3" height="3"/>
    <rect x="72" y="30" width="3" height="3"/>
    <rect x="75" y="30" width="3" height="3"/>
    <rect x="78" y="30" width="3" height="3"/>
    <rect x="0" y="33" width="3" height="3"/>
    <rect x="3" y="33" width="3" height="3"/>
    <rect x="12" y="33" width="3" height="3"/>
    <rect x="15" y="33" width="3" height="3"/>
    <rect x="18" y="33" width="3" height="3"/>
    <rect x="21" y="33" width="3" height="3"/>
    <rect x="24" y="33" width="3" height="3"/>
    <rect x="36" y="33" width="3" height="3"/>
    <rect x="39" y="33" width="3" height="3"/>
    <rect x="42" y="33" width="3" height="3"/>
    <rect x="45" y="33" width="3" height="3"/>
    <rect x="51" y="33" width="3" height="3"/>
    <rect x="54" y="33" width="3" height="3"/>
    <rect x="60" y="33" width="3" height="3"/>
    <rect x="63" y="33" width="3" height="3"/>
    <rect x="69" y="33" width="3" height="3"/>
    <rect x="72" y="33" width="3" height="3"/>
    <rect x="75" y="33" width="3" height="3"/>
    <rect x="78" y="33" width="3" height="3"/>
    <rect x="0" y="36" width="3" height="3"/>
    <rect x="6" y="36" width="3" height="3"/>
    <rect x="9" y="36" width="3" height="3"/>
    <rect x="12" y="36" width="3" height="3"/>
    <rect x="15" y="36" width="3" height="3"/>
    <rect x="18" y="36" width="3" height="3"/>
    <rect x="24" y="36" width="3" height="3"/>
    <rect x="30" y="36" width="3" height="3"/>
    <rect x="33" y="36" width="3" height="3"/>
    <rect x="36" y="36" width="3" height="3"/>
    <rect x="51" y="36" width="3" height="3"/>
    <rect x="54" y="36" width="3" height="3"/>
    <rect x="63" y="36" width="3" height="3"/>
    <rect x="66" y="36" width="3" height="3"/>
    <rect x="69" y="36" width="3" height="3"/>
    <rect x="72" y="36" width="3" height="3"/>
    <rect x="75" y="36" width="3" height="3"/>
    <rect x="78" y="36" width="3" height="3"/>
    <rect x="0" y="39" width="3" height="3"/>
    <rect x="6" y="39" width="3" height="3"/>
    <rect x="12" y="39" width="3" height="3"/>
    <rect x="27" y="39" width="3" height="3"/>
    <rect x="30" y="39" width="3" height="3"/>
    <rect x="33" y="39" width="3" height="3"/>
    <rect x="39" y="39" width="3" height="3"/>
    <rect x="42" y="39" width="3" height="3"/>
    <rect x="45" y="39" width="3" height="3"/>
    <rect x="54" y="39" width="3" height="3"/>
    <rect x="57" y="39" width="3" height="3"/>
    <rect x="63" y="39" width="3" height="3"/>
    <rect x="66" y="39" width="3" height="3"/>
    <rect x="72" y="39" width="3" height="3"/>
    <rect x="78" y="39" width="3" height="3"/>
    <rect x="0" y="42" width="3" height="3"/>
    <rect x="9" y="42" width="3" height="3"/>
    <rect x="15" y="42" width="3" height="3"/>
    <rect x="21" y="42" width="3" height="3"/>
    <rect x="24" y="42" width="3" height="3"/>
    <rect x="27" y="42" width="3" height="3"/>
    <rect x="36" y="42" width="3" height="3"/>
    <rect x="42" y="42" width="3" height="3"/>
    <rect x="48" y="42" width="3" height="3"/>
    <rect x="51" y="42" width="3" height="3"/>
    <rect x="57" y="42" width="3" height="3"/>
    <rect x="60" y="42" width="3" height="3"/>
    <rect x="63" y="42" width="3" height="3"/>
    <rect x="69" y="42" width="3" height="3"/>
    <rect x="0" y="45" width="3" height="3"/>
    <rect x="3" y="45" width="3" height="3"/>
    <rect x="6" y="45" width="3" height="3"/>
    <rect x="15" y="45" width="3" height="3"/>
    <rect x="18" y="45" width="3" height="3"/>
    <rect x="21" y="45" width="3" height="3"/>
    <rect x="24" y="45" width="3" height="3"/>
    <rect x="33" y="45" width="3" height="3"/>
    <rect x="36" y="45" width="3" height="3"/>
    <rect x="42" y="45" width="3" height="3"/>
    <rect x="48" y="45" width="3" height="3"/>
    <rect x="51" y="45" width="3" height="3"/>
    <rect x="54" y="45" width="3" height="3"/>
    <rect x="57" y="45" width="3" height="3"/>
    <rect x="66" y="45" width="3" height="3"/>
    <rect x="69" y="45" width="3" height="3"/>
    <rect x="72" y="45" width="3" height="3"/>
    <rect x="75" y="45" width="3" height="3"/>
    <rect x="78" y="45" width="3" height="3"/>
    <rect x="0" y="48" width="3" height="3"/>
    <rect x="3" y="48" width="3" height="3"/>
    <rect x="12" y="48" width="3" height="3"/>
    <rect x="15" y="48" width="3" height="3"/>
    <rect x="18" y="48" width="3" height="3"/>
    <rect x="21" y="48" width="3" height="3"/>
    <rect x="27" y="48" width="3" height="3"/>
    <rect x="33" y="48" width="3" height="3"/>
    <rect x="36" y="48" width="3" height="3"/>
    <rect x="42" y="48" width="3" height="3"/>
    <rect x="45" y="48" width="3" height="3"/>
    <rect x="48" y="48" width="3" height="3"/>
    <rect x="51" y="48" width="3" height="3"/>
    <rect x="54" y="48" width="3" height="3"/>
    <rect x="60" y="48" width="3" height="3"/>
    <rect x="63" y="48" width="3" height="3"/>
    <rect x="69" y="48" width="3" height="3"/>
    <rect x="0" y="51" width="3" height="3"/>
    <rect x="3" y="51" width="3" height="3"/>
    <rect x="6" y="51" width="3" height="3"/>
    <rect x="12" y="51" width="3" height="3"/>
    <rect x="15" y="51" width="3" height="3"/>
    <rect x="21" y="51" width="3" height="3"/>
    <rect x="24" y="51" width="3" height="3"/>
    <rect x="30" y="51" width="3" height="3"/>
    <rect x="33" y="51" width="3" height="3"/>
    <rect x="39" y="51" width="3" height="3"/>
    <rect x="42" y="51" width="3" height="3"/>
    <rect x="48" y="51" width="3" height="3"/>
    <rect x="63" y="51" width="3" height="3"/>
    <rect x="66" y="51" width="3" height="3"/>
    <rect x="69" y="51" width="3" height="3"/>
    <rect x="75" y="51" width="3" height="3"/>
    <rect x="78" y="51" width="3" height="3"/>
    <rect x="0" y="54" width="3" height="3"/>
    <rect x="6" y="54" width="3" height="3"/>
    <rect x="9" y="54" width="3" height="3"/>
    <rect x="12" y="54" width="3" height="3"/>
    <rect x="18" y="54" width="3" height="3"/>
    <rect x="27" y="54" width="3" height="3"/>
    <rect x="36" y="54" width="3" height="3"/>
    <rect x="48" y="54" width="3" height="3"/>
    <rect x="54" y="54" width="3" height="3"/>
    <rect x="57" y="54" width="3" height="3"/>
    <rect x="60" y="54" width="3" height="3"/>
    <rect x="63" y="54" width="3" height="3"/>
    <rect x="66" y="54" width="3" height="3"/>
    <rect x="72" y="54" width="3" height="3"/>
    <rect x="75" y="54" width="3" height="3"/>
    <rect x="0" y="60" width="3" height="3"/>
    <rect x="3" y="60" width="3" height="3"/>
    <rect x="9" y="60" width="3" height="3"/>
    <rect x="12" y="60" width="3" height="3"/>
    <rect x="15" y="60" width="3" height="3"/>
    <rect x="18" y="60" width="3" height="3"/>
    <rect x="21" y="60" width="3" height="3"/>
    <rect x="24" y="60" width="3" height="3"/>
    <rect x="27" y="60" width="3" height="3"/>
    <rect x="33" y="60" width="3" height="3"/>
    <rect x="36" y="60" width="3" height="3"/>
    <rect x="45" y="60" width="3" height="3"/>
    <rect x="48" y="60" width="3" height="3"/>
    <rect x="51" y="60" width="3" height="3"/>
    <rect x="54" y="60" width="3" height="3"/>
    <rect x="60" y="60" width="3" height="3"/>
    <rect x="66" y="60" width="3" height="3"/>
    <rect x="69" y="60" width="3" height="3"/>
    <rect x="72" y="60" width="3" height="3"/>
    <rect x="0" y="63" width="3" height="3"/>
    <rect x="3" y="63" width="3" height="3"/>
    <rect x="6" y="63" width="3" height="3"/>
    <rect x="9" y="63" width="3" height="3"/>
    <rect x="12" y="63" width="3" height="3"/>
    <rect x="21" y="63" width="3" height="3"/>
    <rect x="27" y="63" width="3" height="3"/>
    <rect x="30" y="63" width="3" height="3"/>
    <rect x="33" y="63" width="3" height="3"/>
    <rect x="39" y="63" width="3" height="3"/>
    <rect x="42" y="63" width="3" height="3"/>
    <rect x="48" y="63" width="3" height="3"/>
    <rect x="51" y="63" width="3" height="3"/>
    <rect x="54" y="63" width="3" height="3"/>
    <rect x="57" y="63" width="3" height="3"/>
    <rect x="60" y="63" width="3" height="3"/>
    <rect x="66" y="63" width="3" height="3"/>
    <rect x="72" y="63" width="3" height="3"/>
    <rect x="75" y="63" width="3" height="3"/>
    <rect x="0" y="66" width="3" height="3"/>
    <rect x="3" y="66" width="3" height="3"/>
    <rect x="9" y="66" width="3" height="3"/>
    <rect x="12" y="66" width="3" height="3"/>
    <rect x="15" y="66" width="3" height="3"/>
    <rect x="24" y="66" width="3" height="3"/>
    <rect x="30" y="66" width="3" height="3"/>
    <rect x="36" y="66" width="3" height="3"/>
    <rect x="39" y="66" width="3" height="3"/>
    <rect x="48" y="66" width="3" height="3"/>
    <rect x="51" y="66" width="3" height="3"/>
    <rect x="54" y="66" width="3" height="3"/>
    <rect x="57" y="66" width="3" height="3"/>
    <rect x="63" y="66" width="3" height="3"/>
    <rect x="66" y="66" width="3" height="3"/>
    <rect x="72" y="66" width="3" height="3"/>
    <rect x="75" y="66" width="3" height="3"/>
    <rect x="78" y="66" width="3" height="3"/>
    <rect x="0" y="69" width="3" height="3"/>
    <rect x="3" y="69" width="3" height="3"/>
    <rect x="6" y="69" width="3" height="3"/>
    <rect x="9" y="69" width="3" height="3"/>
    <rect x="12" y="69" width="3" height="3"/>
    <rect x="18" y="69" width="3" height="3"/>
    <rect x="21" y="69" width="3" height="3"/>
    <rect x="24" y="69" width="3" height="3"/>
    <rect x="27" y="69" width="3" height="3"/>
    <rect x="33" y="69" width="3" height="3"/>
    <rect x="36" y="69" width="3" height="3"/>
    <rect x="42" y="69" width="3" height="3"/>
    <rect x="45" y="69" width="3" height="3"/>
    <rect x="48" y="69" width="3" height="3"/>
    <rect x="51" y="69" width="3" height="3"/>
    <rect x="57" y="69" width="3" height="3"/>
    <rect x="60" y="69" width="3" height="3"/>
    <rect x="63" y="69" width="3" height="3"/>
    <rect x="66" y="69" width="3" height="3"/>
    <rect x="69" y="69" width="3" height="3"/>
    <rect x="75" y="69" width="3" height="3"/>
    <rect x="78" y="69" width="3" height="3"/>
    <rect x="0" y="72" width="3" height="3"/>
    <rect x="3" y="72" width="3" height="3"/>
    <rect x="6" y="72" width="3" height="3"/>
    <rect x="9" y="72" width="3" height="3"/>
    <rect x="12" y="72" width="3" height="3"/>
    <rect x="15" y="72" width="3" height="3"/>
    <rect x="18" y="72" width="3" height="3"/>
    <rect x="21" y="72" width="3" height="3"/>
    <rect x="24" y="72" width="3" height="3"/>
    <rect x="27" y="72" width="3" height="3"/>
    <rect x="30" y="72" width="3" height="3"/>
    <rect x="33" y="72" width="3" height="3"/>
    <rect x="36" y="72" width="3" height="3"/>
    <rect x="39" y="72" width="3" height="3"/>
    <rect x="42" y="72" width="3" height="3"/>
    <rect x="45" y="72" width="3" height="3"/>
    <rect x="48" y="72" width="3" height="3"/>
    <rect x="51" y="72" width="3" height="3"/>
    <rect x="54" y="72" width="3" height="3"/>
    <rect x="57" y="72" width="3" height="3"/>
    <rect x="60" y="72" width="3" height="3"/>
    <rect x="63" y="72" width="3" height="3"/>
    <rect x="66" y="72" width="3" height="3"/>
    <rect x="69" y="72" width="3" height="3"/>
    <rect x="72" y="72" width="3" height="3"/>
    <rect x="75" y="72" width="3" height="3"/>
    <rect x="78" y="72" width="3" height="3"/>
    <!-- Marcadores posicionais (cantos) -->
    <g fill="#ff4da6">
      <rect x="0" y="0" width="24" height="3"/>
      <rect x="0" y="0" width="3" height="24"/>
      <rect x="21" y="0" width="3" height="24"/>
      <rect x="0" y="21" width="24" height="3"/>
      <rect x="0" y="63" width="24" height="3"/>
      <rect x="0" y="63" width="3" height="24"/>
      <rect x="21" y="63" width="3" height="24"/>
      <rect x="0" y="84" width="24" height="3"/>
      <rect x="63" y="0" width="24" height="3"/>
      <rect x="63" y="0" width="3" height="24"/>
      <rect x="84" y="0" width="3" height="24"/>
      <rect x="84" y="0" width="24" height="3"/>
    </g>
  </g>

  <!-- Moldura rosa UV externa -->
  <rect x="10" y="10" width="200" height="200" rx="5" fill="none" stroke="#ff4da6" stroke-width="2"/>
</svg>
